<svg width="36" height="36" viewBox="0 0 36 36" fill="none" xmlns="http://www.w3.org/2000/svg">
<path d="M20.4247 17.9626L34.1032 4.32069C34.3736 4.00588 34.5148 3.60094 34.4988 3.18679C34.4827 2.77263 34.3106 2.37977 34.0167 2.0867C33.7229 1.79363 33.329 1.62194 32.9137 1.60594C32.4984 1.58995 32.0924 1.73082 31.7767 2.00041L18.0982 15.6423L4.41975 1.98395C4.10905 1.67408 3.68764 1.5 3.24825 1.5C2.80885 1.5 2.38745 1.67408 2.07675 1.98395C1.76605 2.29382 1.5915 2.7141 1.5915 3.15232C1.5915 3.59054 1.76605 4.01082 2.07675 4.32069L15.7717 17.9626L2.07675 31.6045C1.90402 31.752 1.76374 31.9336 1.6647 32.1377C1.56566 32.3419 1.51001 32.5643 1.50123 32.7909C1.49245 33.0175 1.53074 33.2435 1.61369 33.4547C1.69665 33.6659 1.82247 33.8576 1.98327 34.018C2.14407 34.1784 2.33638 34.3039 2.54811 34.3866C2.75985 34.4693 2.98645 34.5075 3.21369 34.4988C3.44092 34.49 3.66389 34.4345 3.8686 34.3357C4.0733 34.237 4.25533 34.0971 4.40325 33.9248L18.0982 20.2829L31.7767 33.9248C32.0924 34.1944 32.4984 34.3353 32.9137 34.3193C33.329 34.3033 33.7229 34.1316 34.0167 33.8385C34.3106 33.5454 34.4827 33.1526 34.4988 32.7384C34.5148 32.3243 34.3736 31.9193 34.1032 31.6045L20.4247 17.9626Z" fill="#FCFCFC"/>
</svg>
