<svg width="34" height="34" viewBox="0 0 34 34" fill="none" xmlns="http://www.w3.org/2000/svg">
<path d="M19.29 16.9647L32.2086 4.08067C32.4639 3.78336 32.5973 3.40091 32.5821 3.00977C32.567 2.61862 32.4044 2.24758 32.1269 1.97079C31.8493 1.694 31.4773 1.53185 31.0851 1.51674C30.6929 1.50164 30.3094 1.63468 30.0113 1.8893L17.0927 14.7733L4.17416 1.87375C3.88072 1.5811 3.48273 1.41669 3.06775 1.41669C2.65276 1.41669 2.25477 1.5811 1.96133 1.87375C1.66789 2.16641 1.50304 2.56333 1.50304 2.97721C1.50304 3.39109 1.66789 3.78801 1.96133 4.08067L14.8955 16.9647L1.96133 29.8487C1.7982 29.9881 1.66571 30.1595 1.57218 30.3523C1.47864 30.5451 1.42608 30.7552 1.41779 30.9692C1.4095 31.1832 1.44566 31.3967 1.524 31.5961C1.60235 31.7956 1.72118 31.9767 1.87305 32.1282C2.02492 32.2796 2.20654 32.3981 2.40651 32.4763C2.60648 32.5544 2.82049 32.5905 3.03511 32.5822C3.24972 32.5739 3.4603 32.5215 3.65363 32.4282C3.84697 32.3349 4.01888 32.2028 4.15858 32.0401L17.0927 19.1561L30.0113 32.0401C30.3094 32.2947 30.6929 32.4278 31.0851 32.4127C31.4773 32.3975 31.8493 32.2354 32.1269 31.9586C32.4044 31.6818 32.567 31.3108 32.5821 30.9196C32.5973 30.5285 32.4639 30.146 32.2086 29.8487L19.29 16.9647Z" fill="#FCFCFC"/>
</svg>
