<svg width="30" height="30" viewBox="0 0 30 30" fill="none" xmlns="http://www.w3.org/2000/svg">
<path d="M23.75 3.75H6.25C4.86929 3.75 3.75 4.86929 3.75 6.25V23.75C3.75 25.1307 4.86929 26.25 6.25 26.25H23.75C25.1307 26.25 26.25 25.1307 26.25 23.75V6.25C26.25 4.86929 25.1307 3.75 23.75 3.75ZM10.625 21.875C10.625 22.2202 10.3452 22.5 10 22.5H8.125C7.77982 22.5 7.5 22.2202 7.5 21.875V13.125C7.5 12.7798 7.77982 12.5 8.125 12.5H10C10.3452 12.5 10.625 12.7798 10.625 13.125V21.875ZM9.0625 11.25C8.02697 11.25 7.1875 10.4105 7.1875 9.375C7.1875 8.33947 8.02697 7.5 9.0625 7.5C10.098 7.5 10.9375 8.33947 10.9375 9.375C10.9375 10.4105 10.098 11.25 9.0625 11.25ZM22.5 21.875C22.5 22.2202 22.2202 22.5 21.875 22.5H20C19.6548 22.5 19.375 22.2202 19.375 21.875V17.1875C19.375 16.152 18.5355 15.3125 17.5 15.3125C16.4645 15.3125 15.625 16.152 15.625 17.1875V21.875C15.625 22.2202 15.3452 22.5 15 22.5H13.125C12.7798 22.5 12.5 22.2202 12.5 21.875V13.125C12.5 12.7798 12.7798 12.5 13.125 12.5H15C15.3452 12.5 15.625 12.7798 15.625 13.125V13.875C16.3853 12.718 17.7213 12.0741 19.1 12.2C21.072 12.4431 22.5406 14.1385 22.5 16.125V21.875Z" fill="white"/>
</svg>
