<svg width="154" height="39" viewBox="0 0 154 39" fill="none" xmlns="http://www.w3.org/2000/svg">
<path d="M0 38.3139L15.0006 1.37212H23.2456L38.4058 38.3139H29.7885L27.3948 32.2449H10.9579L8.61738 38.3139H0ZM13.458 25.1732H24.8946L19.2029 10.2909H19.0965L13.458 25.1732ZM47.2041 38.3139L36.6717 12.1908H44.5444L51.3532 30.9256L58.162 12.1908H65.9815L55.5023 38.3139H47.2041ZM75.4436 6.96617C74.6265 7.77678 73.652 8.17997 72.5179 8.17997C71.3817 8.17997 70.3987 7.77678 69.5646 6.96617C68.7305 6.15767 68.3135 5.17185 68.3135 4.01083C68.3135 2.92157 68.7305 1.97797 69.5646 1.18636C70.3987 0.396861 71.3838 0 72.5179 0C73.652 0 74.6265 0.396861 75.4436 1.18847C76.2585 1.98008 76.667 2.92157 76.667 4.01294C76.667 5.17185 76.2585 6.15767 75.4436 6.96617ZM68.8475 38.3139V12.1908H76.1351V38.3139H68.8475ZM94.1082 11.3464C98.0083 11.3464 101.191 12.5687 103.657 15.0153C106.121 17.4619 107.373 20.8288 107.409 25.1225C107.409 26.0387 107.39 26.7585 107.356 27.2863H87.1419C87.4951 29.1165 88.3122 30.5245 89.5888 31.5082C90.8655 32.494 92.3719 32.9859 94.1103 32.9859C97.0168 32.9859 99.2509 31.9832 100.813 29.9778L105.334 33.7247C104.128 35.3797 102.515 36.6716 100.494 37.6047C98.4722 38.5377 96.3614 39.0042 94.1635 39.0042C90.191 39.0042 86.8759 37.6764 84.2162 35.0187C81.5566 32.3631 80.2267 29.1165 80.2267 25.2809C80.2267 21.3059 81.5481 17.9896 84.1907 15.3319C86.8291 12.6742 90.1357 11.3464 94.1082 11.3464ZM94.1613 17.0988C92.4592 17.0988 90.9953 17.5822 89.7718 18.5511C88.5483 19.5201 87.7058 20.8478 87.244 22.5366H100.702C99.7467 18.9121 97.5657 17.0988 94.1613 17.0988ZM117.03 38.3139L107.987 12.1908H115.913L121.233 30.0284L127.137 12.1908H134.903L140.755 30.0284L146.074 12.1908H154L144.957 38.3139H136.446L131.02 20.8985L125.541 38.3139H117.03Z" fill="url(#paint0_linear_1352_952)"/>
<defs>
<linearGradient id="paint0_linear_1352_952" x1="0" y1="19.5" x2="153.999" y2="19.5" gradientUnits="userSpaceOnUse">
<stop stop-color="#FC00FF"/>
<stop offset="1" stop-color="#00FFFC"/>
</linearGradient>
</defs>
</svg>
