<svg width="30" height="30" viewBox="0 0 30 30" fill="none" xmlns="http://www.w3.org/2000/svg">
<path d="M26.9767 8.74986C26.8417 8.21058 26.5668 7.71647 26.1797 7.31744C25.7926 6.91841 25.3071 6.62859 24.7722 6.47725C22.8178 6 15 6 15 6C15 6 7.18222 6 5.22778 6.5227C4.69286 6.67404 4.20735 6.96386 3.82029 7.36289C3.43323 7.76192 3.15833 8.25603 3.02335 8.79531C2.66566 10.7788 2.49069 12.7909 2.50065 14.8064C2.4879 16.837 2.66288 18.8644 3.02335 20.8629C3.17216 21.3854 3.45322 21.8607 3.83938 22.2429C4.22554 22.6251 4.70374 22.9012 5.22778 23.0446C7.18222 23.5673 15 23.5673 15 23.5673C15 23.5673 22.8178 23.5673 24.7722 23.0446C25.3071 22.8932 25.7926 22.6034 26.1797 22.2044C26.5668 21.8053 26.8417 21.3112 26.9767 20.772C27.3316 18.8034 27.5065 16.8066 27.4994 14.8064C27.5121 12.7757 27.3371 10.7483 26.9767 8.74986V8.74986Z" fill="white" stroke="white" stroke-width="3" stroke-linecap="round" stroke-linejoin="round"/>
<path d="M12.4433 18.5198L18.9771 14.8041L12.4433 11.0884V18.5198Z" fill="#090C32" stroke="#090C32" stroke-width="3" stroke-linecap="round" stroke-linejoin="round"/>
</svg>
